<svg xmlns="http://www.w3.org/2000/svg" xmlns:xlink="http://www.w3.org/1999/xlink" width="68.102" height="67" viewBox="0 0 68.102 67">
  <defs>
    <linearGradient id="linear-gradient" x2="1.139" y2="1" gradientUnits="objectBoundingBox">
      <stop offset="0" stop-color="#77ded2"/>
      <stop offset="1" stop-color="#82df98"/>
    </linearGradient>
  </defs>
  <path id="Combined_Shape" data-name="Combined Shape" d="M33.051,67A33.511,33.511,0,0,1,0,39H19.8a15.006,15.006,0,0,0,27.5,0H68.1A33.47,33.47,0,0,1,35.05,67Zm-9.5-33.5A10.5,10.5,0,1,1,34.051,44,10.5,10.5,0,0,1,23.551,33.5ZM19.4,28H0A33.47,33.47,0,0,1,33.051,0h2A33.511,33.511,0,0,1,68.1,28H47.7A15.005,15.005,0,0,0,19.4,28h0Z" fill="url(#linear-gradient)"/>
</svg>
