<svg id="Steel" xmlns="http://www.w3.org/2000/svg" width="110" height="30" viewBox="0 0 110 30">
  <g id="Group_4" data-name="Group 4">
    <rect id="Rectangle" width="110" height="30" rx="15" fill="#5596a4"/>
    <text id="STEEL-2" data-name="STEEL" transform="translate(60 7)" fill="#fff" font-size="12" font-family="Avenir-Heavy, Avenir" font-weight="800"><tspan x="-17.334" y="12">STEEL</tspan></text>
    <path id="Path_7" data-name="Path 7" d="M11.077,13H3.961a.373.373,0,0,1-.321-.184L.051,6.692a.371.371,0,0,1,0-.376L3.64.185A.373.373,0,0,1,3.961,0h7.116A.373.373,0,0,1,11.4.186l3.55,6.131a.375.375,0,0,1,0,.374L11.4,12.814A.373.373,0,0,1,11.077,13ZM7.5,3A3.5,3.5,0,1,0,11,6.5,3.5,3.5,0,0,0,7.5,3Z" transform="translate(14 8)" fill="#fff"/>
  </g>
</svg>
