<svg id="Ice" xmlns="http://www.w3.org/2000/svg" width="110" height="30" viewBox="0 0 110 30">
  <g id="Group_4" data-name="Group 4">
    <rect id="Rectangle" width="110" height="30" rx="15" fill="#7ed4c9"/>
    <text id="ICE-2" data-name="ICE" transform="translate(60 7)" fill="#fff" font-size="12" font-family="Avenir-Heavy, Avenir" font-weight="800"><tspan x="-9.444" y="12">ICE</tspan></text>
    <g id="Group_2" data-name="Group 2" transform="translate(14 6)">
      <path id="Polygon" d="M2.3,0,4.7,3.9,2.268,7.6,0,3.917Z" transform="translate(10.68 0.151) rotate(31)" fill="#fff"/>
      <path id="Polygon-2" data-name="Polygon" d="M2.149,0,4.34,3.991,2.007,7.906,0,3.918Z" transform="matrix(0.017, 1, -1, 0.017, 16.618, 6.401)" fill="#fff"/>
      <path id="Polygon_Copy" data-name="Polygon Copy" d="M2.149,0,4.34,3.991,2.007,7.906,0,3.918Z" transform="matrix(0.017, 1, -1, 0.017, 8.008, 6.401)" fill="#fff"/>
      <path id="Polygon-3" data-name="Polygon" d="M2.3,0,4.7,3.9,2.268,7.6,0,3.917Z" transform="matrix(0.848, -0.53, 0.53, 0.848, 2.097, 2.536)" fill="#fff"/>
      <path id="Polygon-4" data-name="Polygon" d="M2.3,0,4.7,3.9,2.268,7.6,0,3.917Z" transform="matrix(-0.848, 0.53, -0.53, -0.848, 14.716, 14.492)" fill="#fff"/>
      <path id="Polygon-5" data-name="Polygon" d="M2.3,0,4.7,3.9,2.268,7.6,0,3.917Z" transform="translate(6.162 16.938) rotate(-149)" fill="#fff"/>
    </g>
  </g>
</svg>
