<svg id="Water" xmlns="http://www.w3.org/2000/svg" width="110" height="30" viewBox="0 0 110 30">
  <g id="Group_4" data-name="Group 4">
    <rect id="Rectangle" width="110" height="30" rx="15" fill="#559edf"/>
    <text id="Water-2" data-name="Water" transform="translate(60 7)" fill="#fff" font-size="12" font-family="Avenir-Heavy, Avenir" font-weight="800"><tspan x="-20.406" y="12">WATER</tspan></text>
    <path id="Oval_5" data-name="Oval 5" d="M5,15a5,5,0,0,1-5-4.982L4.549.518a.5.5,0,0,1,.9,0L10,10.019A5,5,0,0,1,5,15ZM2.064,10.038a4,4,0,0,0,.1,1.474,2.517,2.517,0,0,0,2,1.891,4.212,4.212,0,0,0,.9.1,4.1,4.1,0,0,0,3.078-1.474l-.01,0a7.435,7.435,0,0,1-2.39.442,4.223,4.223,0,0,1-1.311-.192A4.284,4.284,0,0,1,2.064,10.038Z" transform="translate(14 7)" fill="#fff"/>
  </g>
</svg>
